<svg width="1151" height="902" viewBox="0 0 1151 902" fill="none" xmlns="http://www.w3.org/2000/svg">
<line x1="0.5" y1="2.18557e-08" x2="0.499961" y2="900" stroke="black"/>
<line x1="50.5001" y1="2.18557e-08" x2="50.5001" y2="900" stroke="black"/>
<line x1="100.5" y1="2.18557e-08" x2="100.5" y2="900" stroke="black"/>
<line x1="150.5" y1="2.18557e-08" x2="150.5" y2="900" stroke="black"/>
<line x1="200.5" y1="2.18557e-08" x2="200.5" y2="900" stroke="black"/>
<line x1="250.5" y1="2.18557e-08" x2="250.5" y2="900" stroke="black"/>
<line x1="300.5" y1="2.18557e-08" x2="300.5" y2="900" stroke="black"/>
<line x1="350.5" y1="2.18557e-08" x2="350.5" y2="900" stroke="black"/>
<line x1="400.5" y1="2.18557e-08" x2="400.5" y2="900" stroke="black"/>
<line x1="450.5" y1="2.18557e-08" x2="450.5" y2="900" stroke="black"/>
<line x1="500.5" y1="2.18557e-08" x2="500.5" y2="900" stroke="black"/>
<line x1="550.5" y1="2.18557e-08" x2="550.5" y2="900" stroke="black"/>
<line x1="600.5" y1="2.18557e-08" x2="600.5" y2="900" stroke="black"/>
<line x1="650.5" y1="2.18557e-08" x2="650.5" y2="900" stroke="black"/>
<line x1="700.501" y1="2.18557e-08" x2="700.501" y2="900" stroke="black"/>
<line x1="750.501" y1="2.18557e-08" x2="750.501" y2="900" stroke="black"/>
<line x1="800.501" y1="2.18557e-08" x2="800.501" y2="900" stroke="black"/>
<line x1="850.501" y1="2.18557e-08" x2="850.501" y2="900" stroke="black"/>
<line x1="900.501" y1="2.18557e-08" x2="900.501" y2="900" stroke="black"/>
<line x1="950.501" y1="2.18557e-08" x2="950.501" y2="900" stroke="black"/>
<line x1="1000.5" y1="2.18557e-08" x2="1000.5" y2="900" stroke="black"/>
<line x1="1050.5" y1="2.18557e-08" x2="1050.5" y2="900" stroke="black"/>
<line x1="1100.5" y1="2.18557e-08" x2="1100.5" y2="900" stroke="black"/>
<line x1="1150.5" y1="2.18557e-08" x2="1150.5" y2="900" stroke="black"/>
<line y1="0.5" x2="1151" y2="0.5" stroke="black"/>
<line y1="50.5" x2="1151" y2="50.5" stroke="black"/>
<line y1="100.5" x2="1151" y2="100.5" stroke="black"/>
<line y1="150.5" x2="1151" y2="150.5" stroke="black"/>
<line y1="200.5" x2="1151" y2="200.5" stroke="black"/>
<line y1="250.5" x2="1151" y2="250.5" stroke="black"/>
<line y1="300.5" x2="1151" y2="300.5" stroke="black"/>
<line y1="350.5" x2="1151" y2="350.5" stroke="black"/>
<line y1="400.5" x2="1151" y2="400.5" stroke="black"/>
<line y1="450.5" x2="1151" y2="450.5" stroke="black"/>
<line y1="500.5" x2="1151" y2="500.5" stroke="black"/>
<line y1="550.5" x2="1151" y2="550.5" stroke="black"/>
<line y1="600.5" x2="1151" y2="600.5" stroke="black"/>
<line y1="650.5" x2="1151" y2="650.5" stroke="black"/>
<line y1="700.5" x2="1151" y2="700.5" stroke="black"/>
<line y1="750.5" x2="1151" y2="750.5" stroke="black"/>
<line y1="800.5" x2="1151" y2="800.5" stroke="black"/>
<line y1="850.5" x2="1151" y2="850.5" stroke="black"/>
<line y1="900.5" x2="1151" y2="900.5" stroke="black"/>
<rect opacity="0.4" x="151" y="151" width="49" height="49" fill="#060317"/>
<rect opacity="0.5" x="351" y="251" width="49" height="49" fill="#060317"/>
<rect opacity="0.1" x="551" y="351" width="49" height="49" fill="#060317"/>
<rect opacity="0.3" x="501" y="351" width="49" height="49" fill="#060317"/>
<rect opacity="0.3" x="501" y="651" width="49" height="49" fill="#060317"/>
<rect opacity="0.1" x="901" y="551" width="49" height="49" fill="#060317"/>
<rect opacity="0.1" x="901" y="201" width="49" height="49" fill="#060317"/>
<rect opacity="0.5" x="201" y="501" width="49" height="49" fill="#060317"/>
</svg>
