<?xml version="1.0" encoding="UTF-8"?>
<svg id="Ebene_2" data-name="Ebene 2" xmlns="http://www.w3.org/2000/svg" viewBox="0 0 668.14 203.82">
  <defs>
    <style>
      .cls-1 {
        fill: #12100c;
      }

      .cls-2 {
        fill: #4240b2;
      }
    </style>
  </defs>
  <g id="Ebene_3" data-name="Ebene 3">
    <g>
      <g id="Logo">
        <polygon class="cls-2" points="46.47 146.76 102.02 191.56 102.02 89.61 47.16 56.62 46.47 146.76"/>
        <polygon class="cls-2" points="37.35 0 0 66.63 101.05 0 37.35 0"/>
        <polygon class="cls-2" points="107.66 6.71 48.18 45.81 139.28 100.72 164.44 41.32 107.66 6.71"/>
      </g>
      <g id="Text">
        <path class="cls-1" d="m226.73,93.18v65.27h-19.21v-65.27h-8.21v-17.96h8.21v-30.41h19.21v30.41h14.87v17.96h-14.87Z"/>
        <path class="cls-1" d="m317.19,75.22h19.21v83.22h-19.21v-8.69c-3.15,2.96-5.92,5.15-8.3,6.57-5.02,3.09-10.75,4.63-17.19,4.63-12.17,0-22.11-4.67-29.83-14-6.63-7.98-9.94-18.09-9.94-30.32,0-13.52,4.15-24.36,12.45-32.54,7.59-7.4,16.51-11.1,26.74-11.1,7.85,0,14.74,2.29,20.66,6.85,1.48,1.16,3.28,2.86,5.41,5.12v-9.75Zm-22.5,15.06c-7.08,0-12.74,2.7-16.99,8.11-4.12,5.15-6.18,11.23-6.18,18.25,0,8.69,2.61,15.67,7.82,20.95,4.05,4.06,9.11,6.08,15.16,6.08,7.72,0,13.84-2.86,18.34-8.59,3.67-4.7,5.5-10.72,5.5-18.05,0-8.5-2.45-15.19-7.34-20.08-4.38-4.44-9.82-6.66-16.32-6.66Z"/>
        <path class="cls-1" d="m360.64,75.22h19.21v7.72c2.64-2.57,4.89-4.47,6.76-5.7,4.5-2.83,9.85-4.25,16.03-4.25,7.14,0,13.29,1.8,18.44,5.41,5.28,3.61,8.66,8.92,10.14,15.93.71,3.35,1.06,7.72,1.06,13.13v50.98h-19.21v-46.54c0-7.66-.87-12.87-2.61-15.64-2.38-3.99-6.66-5.99-12.84-5.99-6.69,0-11.46,2.29-14.29,6.85-2.32,3.86-3.48,10.91-3.48,21.14v40.16h-19.21v-83.22Z"/>
        <path class="cls-1" d="m467.23,28.4c3.48,0,6.44,1.22,8.88,3.67,2.45,2.45,3.67,5.38,3.67,8.79s-1.22,6.44-3.67,8.88c-2.45,2.45-5.38,3.67-8.79,3.67s-6.44-1.22-8.88-3.67c-2.45-2.51-3.67-5.5-3.67-8.98s1.22-6.24,3.67-8.69c2.45-2.45,5.37-3.67,8.79-3.67Zm9.66,46.82v128.6h-19.21V75.22h19.21Z"/>
        <path class="cls-1" d="m520.42,75.22v47.79c0,5.92.8,10.33,2.41,13.23,2.7,4.96,7.34,7.43,13.9,7.43s11.2-2.48,13.9-7.43c1.61-2.9,2.41-7.3,2.41-13.23v-47.79h19.21v48.18c0,8.69-1.19,15.32-3.57,19.89-3.22,6.12-7.98,10.75-14.29,13.9-5.15,2.51-11.04,3.76-17.67,3.76-11.14,0-20.05-3.51-26.74-10.52-3.73-3.92-6.18-8.11-7.34-12.55-.96-3.92-1.45-8.75-1.45-14.48v-48.18h19.21Z"/>
        <path class="cls-1" d="m596.5,75.22h19.21v7.72c2.64-2.57,4.89-4.47,6.76-5.7,4.5-2.83,9.85-4.25,16.03-4.25,7.14,0,13.29,1.8,18.44,5.41,5.28,3.61,8.66,8.92,10.14,15.93.71,3.35,1.06,7.72,1.06,13.13v50.98h-19.21v-46.54c0-7.66-.87-12.87-2.61-15.64-2.38-3.99-6.66-5.99-12.84-5.99-6.7,0-11.46,2.29-14.29,6.85-2.32,3.86-3.48,10.91-3.48,21.14v40.16h-19.21v-83.22Z"/>
      </g>
    </g>
  </g>
</svg>